<svg width="168" height="26" viewBox="0 0 168 26" fill="none" xmlns="http://www.w3.org/2000/svg">
<g clip-path="url(#clip0_102_8)">
<path d="M26.8279 0.800781H5.17678C3.49756 0.800781 2.41451 2.56079 3.19947 4.01768L5.36557 8.05591H1.44076C0.645856 8.05591 0 8.69146 0 9.47369C0 9.70835 0.0596175 9.93324 0.168916 10.1386L7.13422 23.1137C7.5118 23.8079 8.38619 24.0719 9.08173 23.7004C9.34007 23.5635 9.54873 23.3582 9.6779 23.1137L11.5658 19.6133L13.9405 24.0328C14.7752 25.5875 17.0407 25.5875 17.8753 24.0328L28.7456 3.93945C29.5106 2.5119 28.4574 0.800781 26.8279 0.800781ZM17.1003 9.38569L12.4203 18.0586C12.1719 18.5182 11.5857 18.6942 11.1187 18.4497C10.9497 18.3617 10.8106 18.2248 10.7212 18.0586L6.09092 9.4248C5.84251 8.96524 6.02136 8.38835 6.48837 8.14391C6.62747 8.07546 6.77652 8.03635 6.9355 8.03635H16.2756C16.7923 8.03635 17.2096 8.44702 17.2096 8.95546C17.2096 9.10213 17.1698 9.25858 17.1003 9.38569ZM49.8601 10.1288H47.4952V18.1173C47.4952 18.2639 47.3661 18.391 47.217 18.391H45.3888C45.2397 18.391 45.1105 18.2639 45.1105 18.1173V10.1288H42.7258C42.5768 10.1386 42.4576 10.0212 42.4476 9.87458V9.8648V8.44702C42.4476 8.30035 42.5669 8.18302 42.7159 8.18302H42.7258H49.8601C50.0091 8.17324 50.1482 8.29057 50.1482 8.44702V9.8648C50.1383 10.0115 50.0091 10.1288 49.8601 10.1288ZM57.4613 18.3324C56.9744 18.4008 56.1497 18.5084 54.6493 18.5084C52.8509 18.5084 51.2611 18.0586 51.2611 15.5555V10.999C51.2611 8.50569 52.8608 8.06569 54.6593 8.06569C56.1596 8.06569 56.9744 8.17324 57.4613 8.24169C57.66 8.27102 57.7395 8.33946 57.7395 8.51546V9.79636C57.7395 9.94302 57.6103 10.0701 57.4613 10.0701H54.5202C53.8644 10.0701 53.6259 10.2852 53.6259 10.999V12.2506H57.3421C57.4911 12.2506 57.6203 12.3777 57.6203 12.5244V13.8248C57.6203 13.9715 57.4911 14.0986 57.3421 14.0986H53.6259V15.5555C53.6259 16.2693 53.8644 16.4844 54.5202 16.4844H57.4613C57.6103 16.4844 57.7395 16.6115 57.7395 16.7581V18.039C57.7395 18.215 57.66 18.303 57.4613 18.3324ZM67.9838 18.3813H65.768C65.5891 18.3813 65.4997 18.3226 65.4103 18.1759L63.4827 15.1741L61.7438 18.1075C61.6445 18.2737 61.5451 18.3813 61.396 18.3813H59.3293C59.1902 18.3813 59.1206 18.303 59.1206 18.2053C59.1206 18.1759 59.1306 18.1368 59.1505 18.1075L62.1711 13.1501L59.1206 8.44702C59.1008 8.41769 59.0908 8.39813 59.0908 8.3688C59.1008 8.26124 59.1902 8.18302 59.2995 8.1928H61.5451C61.6941 8.1928 61.8134 8.32969 61.8929 8.4568L63.6814 11.2239L65.4103 8.4568C65.4798 8.32969 65.609 8.1928 65.7581 8.1928H67.8248C67.9341 8.1928 68.0235 8.27102 68.0335 8.3688C68.0335 8.39813 68.0235 8.42746 68.0037 8.44702L64.9632 13.1795L68.1328 18.1075C68.1527 18.1466 68.1726 18.1955 68.1726 18.2444C68.1626 18.3324 68.0931 18.3813 67.9838 18.3813ZM41.0764 8.21235C41.0963 8.21235 41.1062 8.21235 41.1261 8.22213C41.2453 8.25146 41.3149 8.35902 41.2851 8.47635C41.2851 8.47635 38.8706 16.9048 38.8308 17.0124C38.5029 17.9902 37.6484 18.4986 36.6846 18.4986C35.6612 18.4986 34.8663 18.0195 34.5384 17.0124C34.5086 16.9244 32.0344 8.47635 32.0344 8.47635C32.0344 8.4568 32.0245 8.44702 32.0245 8.42746C32.0245 8.31013 32.1239 8.21235 32.2431 8.21235H34.2403C34.3397 8.21235 34.4291 8.2808 34.449 8.37857L36.4759 15.751C36.5058 15.8977 36.5455 15.9564 36.6747 15.9564C36.8038 15.9564 36.8436 15.8977 36.8734 15.751L38.9004 8.37857C38.9203 8.2808 39.0097 8.21235 39.1091 8.21235H41.0764Z" fill="#EE2565"/>
<path d="M79.2456 2.67932H78.1725V23.3202H79.2456V2.67932Z" fill="#EE2565"/>
<path d="M94.6377 18.1598C93.827 18.1598 93.1177 18.0212 92.5097 17.7438C91.9017 17.4558 91.427 17.0132 91.0857 16.4158C90.755 15.8185 90.5897 15.0505 90.5897 14.1118V7.11982H92.1897V14.0798C92.1897 14.6985 92.2963 15.2052 92.5097 15.5998C92.723 15.9945 93.0217 16.2878 93.4057 16.4798C93.8003 16.6612 94.259 16.7518 94.7817 16.7518C95.539 16.7518 96.147 16.5438 96.6057 16.1278C97.0643 15.7012 97.2937 15.0185 97.2937 14.0798V7.11982H98.7977V14.1118C98.7977 15.0505 98.6217 15.8185 98.2697 16.4158C97.9177 17.0132 97.427 17.4558 96.7977 17.7438C96.179 18.0212 95.459 18.1598 94.6377 18.1598ZM100.347 17.9998L104.763 12.0478V13.0878L100.299 7.11982H102.267L105.739 11.8718H104.971L108.395 7.11982H110.347L105.883 13.1358L105.867 12.0798L110.299 17.9998H108.347L104.923 13.2958H105.691L102.315 17.9998H100.347ZM117.512 17.9998L114.936 7.11982H116.68L118.792 17.2478H118.44L120.984 7.11982H122.632L125.4 17.1838H124.968L127.032 7.11982H128.728L126.152 17.9998H124.104L121.64 8.84782H121.96L119.608 17.9998H117.512ZM130.022 17.9998V10.0958H131.398V12.3838H131.446C131.596 11.7331 131.777 11.2318 131.99 10.8798C132.204 10.5278 132.454 10.2825 132.742 10.1438C133.041 10.0052 133.382 9.93582 133.766 9.93582C133.894 9.93582 134.033 9.94648 134.182 9.96782C134.342 9.97848 134.476 9.99448 134.582 10.0158L134.662 11.4878C134.556 11.4665 134.417 11.4505 134.246 11.4398C134.076 11.4185 133.916 11.4078 133.766 11.4078C133.286 11.4078 132.876 11.5038 132.534 11.6958C132.193 11.8772 131.932 12.1492 131.75 12.5118C131.58 12.8638 131.494 13.2958 131.494 13.8078V17.9998H130.022ZM136.057 17.9998V10.0958H137.513V17.9998H136.057ZM136.809 8.87982C136.489 8.87982 136.238 8.79448 136.057 8.62382C135.886 8.44248 135.801 8.20782 135.801 7.91982C135.801 7.62115 135.886 7.38648 136.057 7.21582C136.238 7.03448 136.489 6.94382 136.809 6.94382C137.118 6.94382 137.358 7.03448 137.529 7.21582C137.7 7.38648 137.785 7.62115 137.785 7.91982C137.785 8.20782 137.7 8.44248 137.529 8.62382C137.358 8.79448 137.118 8.87982 136.809 8.87982ZM142.617 18.1598C142.19 18.1598 141.817 18.1012 141.497 17.9838C141.187 17.8665 140.947 17.6692 140.777 17.3918C140.606 17.1038 140.521 16.7145 140.521 16.2238V11.0238L141.673 10.0958H144.217V11.3278H139.193V10.4318C139.491 10.3465 139.747 10.2398 139.961 10.1118C140.174 9.98382 140.35 9.82382 140.489 9.63182C140.638 9.42915 140.755 9.18915 140.841 8.91182C140.926 8.62382 140.985 8.28782 141.017 7.90382H141.993V15.9038C141.993 16.2878 142.078 16.5492 142.249 16.6878C142.419 16.8158 142.67 16.8798 143.001 16.8798C143.257 16.8798 143.497 16.8585 143.721 16.8158C143.955 16.7625 144.153 16.7145 144.313 16.6718L144.121 17.9678C143.918 18.0212 143.683 18.0638 143.417 18.0958C143.161 18.1385 142.894 18.1598 142.617 18.1598ZM146.166 17.9998V10.0958H147.622V17.9998H146.166ZM146.918 8.87982C146.598 8.87982 146.348 8.79448 146.166 8.62382C145.996 8.44248 145.91 8.20782 145.91 7.91982C145.91 7.62115 145.996 7.38648 146.166 7.21582C146.348 7.03448 146.598 6.94382 146.918 6.94382C147.228 6.94382 147.468 7.03448 147.638 7.21582C147.809 7.38648 147.894 7.62115 147.894 7.91982C147.894 8.20782 147.809 8.44248 147.638 8.62382C147.468 8.79448 147.228 8.87982 146.918 8.87982ZM150.038 17.9998V10.0958H151.43V12.0958H151.478C151.585 11.6051 151.75 11.1998 151.974 10.8798C152.198 10.5598 152.481 10.3198 152.822 10.1598C153.163 9.99982 153.553 9.91982 153.99 9.91982C154.427 9.91982 154.817 9.98382 155.158 10.1118C155.499 10.2398 155.787 10.4371 156.022 10.7038C156.257 10.9598 156.433 11.2905 156.55 11.6958C156.678 12.0905 156.742 12.5598 156.742 13.1038V17.9998H155.27V13.1838C155.27 12.7785 155.201 12.4318 155.062 12.1438C154.934 11.8451 154.737 11.6211 154.47 11.4718C154.203 11.3118 153.867 11.2318 153.462 11.2318C152.811 11.2318 152.321 11.4078 151.99 11.7598C151.67 12.1012 151.51 12.5758 151.51 13.1838V17.9998H150.038ZM161.875 21.1198C161.256 21.1198 160.712 21.0825 160.243 21.0078C159.773 20.9332 159.379 20.8158 159.059 20.6558C158.739 20.5065 158.499 20.3145 158.339 20.0798C158.179 19.8452 158.099 19.5678 158.099 19.2478C158.099 18.9172 158.189 18.6345 158.371 18.3998C158.552 18.1758 158.829 17.9945 159.203 17.8558C159.587 17.7172 160.083 17.6318 160.691 17.5998L160.723 17.6958C160.488 17.7278 160.285 17.7918 160.115 17.8878C159.944 17.9732 159.811 18.0798 159.715 18.2078C159.629 18.3465 159.587 18.5065 159.587 18.6878C159.587 18.9545 159.677 19.1732 159.859 19.3438C160.051 19.5252 160.323 19.6585 160.675 19.7438C161.027 19.8292 161.448 19.8718 161.939 19.8718C162.717 19.8718 163.352 19.7598 163.843 19.5358C164.344 19.3225 164.595 19.0025 164.595 18.5758C164.595 18.2665 164.477 18.0372 164.243 17.8878C164.008 17.7385 163.619 17.6585 163.075 17.6478C162.904 17.6478 162.723 17.6532 162.531 17.6638C162.339 17.6638 162.141 17.6692 161.939 17.6798C161.736 17.6798 161.539 17.6852 161.347 17.6958C161.155 17.6958 160.973 17.6958 160.803 17.6958C160.568 17.6958 160.349 17.6852 160.147 17.6638C159.955 17.6318 159.784 17.5892 159.635 17.5358C159.368 17.4398 159.16 17.3012 159.011 17.1198C158.861 16.9385 158.787 16.7092 158.787 16.4318C158.787 16.1652 158.867 15.9358 159.027 15.7438C159.197 15.5518 159.443 15.4025 159.763 15.2958C160.083 15.1892 160.483 15.1358 160.963 15.1358L160.979 15.2158C160.765 15.2372 160.595 15.2852 160.467 15.3598C160.349 15.4238 160.264 15.5038 160.211 15.5998C160.157 15.6958 160.131 15.7972 160.131 15.9038C160.131 16.0638 160.189 16.1865 160.307 16.2718C160.424 16.3572 160.616 16.4052 160.883 16.4158C161.011 16.4158 161.171 16.4158 161.363 16.4158C161.565 16.4052 161.779 16.3945 162.003 16.3838C162.237 16.3732 162.467 16.3678 162.691 16.3678C162.915 16.3572 163.123 16.3518 163.315 16.3518C163.944 16.3518 164.461 16.4265 164.867 16.5758C165.283 16.7145 165.592 16.9332 165.795 17.2318C166.008 17.5305 166.115 17.9145 166.115 18.3838C166.115 18.9918 165.933 19.4985 165.571 19.9038C165.208 20.3092 164.707 20.6132 164.067 20.8158C163.427 21.0185 162.696 21.1198 161.875 21.1198ZM161.859 14.1438C162.413 14.1438 162.824 14.0212 163.091 13.7758C163.357 13.5198 163.491 13.1625 163.491 12.7038C163.491 12.3945 163.432 12.1331 163.315 11.9198C163.197 11.7065 163.016 11.5465 162.771 11.4398C162.536 11.3225 162.232 11.2638 161.859 11.2638C161.304 11.2638 160.883 11.3918 160.595 11.6478C160.307 11.8932 160.163 12.2451 160.163 12.7038C160.163 13.0025 160.227 13.2638 160.355 13.4878C160.483 13.7011 160.669 13.8665 160.915 13.9838C161.171 14.0905 161.485 14.1438 161.859 14.1438ZM161.907 15.2958C161.299 15.2958 160.744 15.2052 160.243 15.0238C159.752 14.8318 159.363 14.5438 159.075 14.1598C158.787 13.7758 158.643 13.2851 158.643 12.6878C158.643 12.2291 158.765 11.8078 159.011 11.4238C159.256 11.0292 159.656 10.7091 160.211 10.4638C160.765 10.2185 161.496 10.0958 162.403 10.0958H165.747V11.4078H165.395C165.192 11.1731 164.915 11.0025 164.563 10.8958C164.221 10.7785 163.672 10.7198 162.915 10.7198L162.899 10.7518C163.443 10.8691 163.864 11.0345 164.163 11.2478C164.472 11.4505 164.685 11.6851 164.803 11.9518C164.931 12.2078 164.995 12.4745 164.995 12.7518C164.995 13.2745 164.861 13.7278 164.595 14.1118C164.328 14.4958 163.96 14.7891 163.491 14.9918C163.032 15.1945 162.504 15.2958 161.907 15.2958Z" fill="#E31C58"/>
</g>
<defs>
<clipPath id="clip0_102_8">
<rect width="167.246" height="24.3981" fill="white" transform="translate(0 0.800781)"/>
</clipPath>
</defs>
</svg>
